<mxfile host="app.diagrams.net" modified="2022-04-12T03:27:57.973Z" agent="5.0 (Macintosh; Intel Mac OS X 10_15_7) AppleWebKit/537.36 (KHTML, like Gecko) Chrome/100.0.4896.75 Safari/537.36" etag="sY5LkWX86CoVrGvopCdQ" version="16.6.5" type="github">
  <diagram id="CswboTHqyIsGrfZtQOCV" name="Page-1">
    <mxGraphModel dx="946" dy="614" grid="1" gridSize="10" guides="1" tooltips="1" connect="1" arrows="1" fold="1" page="1" pageScale="1" pageWidth="827" pageHeight="1169" math="0" shadow="0">
      <root>
        <mxCell id="0" />
        <mxCell id="1" parent="0" />
        <mxCell id="nONakgnuczpGxnTM1CTy-3" value="" style="edgeStyle=orthogonalEdgeStyle;rounded=0;orthogonalLoop=1;jettySize=auto;html=1;entryX=0.481;entryY=0;entryDx=0;entryDy=0;entryPerimeter=0;" edge="1" parent="1" source="nONakgnuczpGxnTM1CTy-1" target="nONakgnuczpGxnTM1CTy-2">
          <mxGeometry relative="1" as="geometry" />
        </mxCell>
        <mxCell id="nONakgnuczpGxnTM1CTy-1" value="PreviewResourceModal" style="rounded=0;whiteSpace=wrap;html=1;" vertex="1" parent="1">
          <mxGeometry x="330" y="150" width="140" height="60" as="geometry" />
        </mxCell>
        <mxCell id="nONakgnuczpGxnTM1CTy-2" value="CarouselItem" style="whiteSpace=wrap;html=1;rounded=0;" vertex="1" parent="1">
          <mxGeometry x="335" y="250" width="135" height="60" as="geometry" />
        </mxCell>
        <mxCell id="nONakgnuczpGxnTM1CTy-4" value="Image" style="whiteSpace=wrap;html=1;rounded=0;" vertex="1" parent="1">
          <mxGeometry x="180" y="350" width="135" height="60" as="geometry" />
        </mxCell>
        <mxCell id="nONakgnuczpGxnTM1CTy-5" value="Audio" style="whiteSpace=wrap;html=1;rounded=0;" vertex="1" parent="1">
          <mxGeometry x="335" y="350" width="135" height="60" as="geometry" />
        </mxCell>
        <mxCell id="nONakgnuczpGxnTM1CTy-6" value="Video" style="whiteSpace=wrap;html=1;rounded=0;" vertex="1" parent="1">
          <mxGeometry x="490" y="350" width="135" height="60" as="geometry" />
        </mxCell>
        <mxCell id="nONakgnuczpGxnTM1CTy-9" value="" style="endArrow=classic;html=1;rounded=0;" edge="1" parent="1">
          <mxGeometry width="50" height="50" relative="1" as="geometry">
            <mxPoint x="400" y="310" as="sourcePoint" />
            <mxPoint x="400" y="350" as="targetPoint" />
          </mxGeometry>
        </mxCell>
        <mxCell id="nONakgnuczpGxnTM1CTy-13" value="" style="endArrow=classic;html=1;rounded=0;entryX=0.5;entryY=0;entryDx=0;entryDy=0;" edge="1" parent="1" target="nONakgnuczpGxnTM1CTy-4">
          <mxGeometry width="50" height="50" relative="1" as="geometry">
            <mxPoint x="400" y="310" as="sourcePoint" />
            <mxPoint x="450" y="260" as="targetPoint" />
            <Array as="points">
              <mxPoint x="400" y="330" />
              <mxPoint x="280" y="330" />
              <mxPoint x="248" y="330" />
            </Array>
          </mxGeometry>
        </mxCell>
        <mxCell id="nONakgnuczpGxnTM1CTy-14" value="" style="endArrow=classic;html=1;rounded=0;entryX=0.5;entryY=0;entryDx=0;entryDy=0;" edge="1" parent="1" target="nONakgnuczpGxnTM1CTy-6">
          <mxGeometry width="50" height="50" relative="1" as="geometry">
            <mxPoint x="400" y="310" as="sourcePoint" />
            <mxPoint x="560" y="340" as="targetPoint" />
            <Array as="points">
              <mxPoint x="400" y="330" />
              <mxPoint x="558" y="330" />
            </Array>
          </mxGeometry>
        </mxCell>
        <mxCell id="nONakgnuczpGxnTM1CTy-15" value="useMediaControl" style="rounded=0;whiteSpace=wrap;html=1;" vertex="1" parent="1">
          <mxGeometry x="420" y="460" width="120" height="60" as="geometry" />
        </mxCell>
        <mxCell id="nONakgnuczpGxnTM1CTy-17" value="" style="endArrow=classic;html=1;rounded=0;entryX=0.5;entryY=0;entryDx=0;entryDy=0;" edge="1" parent="1" target="nONakgnuczpGxnTM1CTy-15">
          <mxGeometry width="50" height="50" relative="1" as="geometry">
            <mxPoint x="400" y="410" as="sourcePoint" />
            <mxPoint x="450" y="360" as="targetPoint" />
            <Array as="points">
              <mxPoint x="400" y="430" />
              <mxPoint x="400" y="440" />
              <mxPoint x="480" y="440" />
            </Array>
          </mxGeometry>
        </mxCell>
        <mxCell id="nONakgnuczpGxnTM1CTy-18" value="" style="endArrow=classic;html=1;rounded=0;exitX=0.5;exitY=1;exitDx=0;exitDy=0;" edge="1" parent="1" source="nONakgnuczpGxnTM1CTy-6">
          <mxGeometry width="50" height="50" relative="1" as="geometry">
            <mxPoint x="390" y="340" as="sourcePoint" />
            <mxPoint x="480" y="460" as="targetPoint" />
            <Array as="points">
              <mxPoint x="558" y="440" />
              <mxPoint x="480" y="440" />
            </Array>
          </mxGeometry>
        </mxCell>
      </root>
    </mxGraphModel>
  </diagram>
</mxfile>
